<svg width="54" height="34" viewBox="0 0 54 34" fill="none" xmlns="http://www.w3.org/2000/svg">
<mask id="mask0_2123_4008" style="mask-type:alpha" maskUnits="userSpaceOnUse" x="0" y="0" width="54" height="34">
<rect width="54" height="34" fill="#D9D9D9"/>
</mask>
<g mask="url(#mask0_2123_4008)">
<mask id="mask1_2123_4008" style="mask-type:luminance" maskUnits="userSpaceOnUse" x="15" y="7" width="23" height="24">
<path d="M37.2284 7H15.7734V30.2151H37.2284V7Z" fill="white"/>
</mask>
<g mask="url(#mask1_2123_4008)">
<path d="M22.9217 30.2099H18.1596C17.5235 30.2055 16.915 29.949 16.4677 29.4966C16.0204 29.0443 15.7707 28.433 15.7735 27.7968V16.1618C15.7733 15.6536 15.8884 15.152 16.1101 14.6948C16.3319 14.2376 16.6544 13.8366 17.0536 13.5221L24.4233 7.71933C25.016 7.25265 25.7485 6.9989 26.5028 6.9989C27.2572 6.9989 27.9897 7.25265 28.5824 7.71933L35.947 13.5209C36.3462 13.8353 36.6688 14.2362 36.8906 14.6935C37.1123 15.1507 37.2274 15.6523 37.2271 16.1605V27.7981C37.2302 28.4335 36.9813 29.0442 36.535 29.4965C36.0888 29.9488 35.4814 30.2057 34.8461 30.2112H30.0789V20.6102C30.079 20.4396 30.0456 20.2707 29.9804 20.1131C29.9153 19.9554 29.8197 19.8122 29.6991 19.6915C29.5786 19.5708 29.4354 19.4751 29.2779 19.4098C29.1203 19.3445 28.9514 19.3109 28.7808 19.3109H24.2223C24.0516 19.3107 23.8826 19.3442 23.7249 19.4094C23.5671 19.4747 23.4238 19.5704 23.3032 19.6911C23.1825 19.8118 23.0868 19.9551 23.0215 20.1128C22.9563 20.2705 22.9228 20.4395 22.923 20.6102V30.2112L22.9217 30.2099Z" fill="#B5BEC7"/>
</g>
</g>
</svg>
