<svg width="54" height="34" viewBox="0 0 54 34" fill="none" xmlns="http://www.w3.org/2000/svg">
<mask id="mask0_2123_4017" style="mask-type:alpha" maskUnits="userSpaceOnUse" x="0" y="0" width="54" height="34">
<rect width="54" height="34" fill="#D9D9D9"/>
</mask>
<g mask="url(#mask0_2123_4017)">
<path d="M27.0998 19.0999C28.2629 19.0997 29.3998 18.7545 30.3668 18.1081C31.3338 17.4617 32.0874 16.5431 32.5324 15.4683C32.9774 14.3936 33.0938 13.2111 32.8668 12.0702C32.6398 10.9293 32.0797 9.88137 31.2573 9.05884C30.4348 8.23632 29.387 7.67614 28.2463 7.44914C27.1055 7.22215 25.9231 7.33852 24.8485 7.78356C23.7738 8.22859 22.8553 8.9823 22.209 9.94938C21.5626 10.9165 21.2175 12.0535 21.2172 13.2167C21.2216 14.7757 21.8428 16.2696 22.945 17.372C24.0473 18.4744 25.541 19.0956 27.0998 19.0999ZM27.0998 22.0409C23.2035 22.0409 15.3359 24.0261 15.3359 27.9229V30.8638H38.8637V27.9229C38.8637 24.0261 30.9962 22.0409 27.0998 22.0409Z" fill="#B5BEC7"/>
</g>
</svg>
